<?xml version="1.0" encoding="iso-8859-1"?>
<!-- Uploaded to: SVG Repo, www.svgrepo.com, Generator: SVG Repo Mixer Tools -->
<svg height="800px" width="800px" version="1.1" id="Layer_1" xmlns="http://www.w3.org/2000/svg" xmlns:xlink="http://www.w3.org/1999/xlink" 
	 viewBox="0 0 512 512" xml:space="preserve">
<path style="fill:#CCCCCC;" d="M453.168,87.983h-50.882c-4.392,0-7.95,3.559-7.95,7.95v328.613c0,4.392,3.559,7.95,7.95,7.95h93.284
	c4.392,0,7.95-3.559,7.95-7.95V138.335C503.52,110.572,480.931,87.983,453.168,87.983z"/>
<path style="fill:#F2F2F2;" d="M402.816,424.547V138.335c0-26.23,20.164-47.829,45.803-50.137c-0.583-0.136-1.187-0.215-1.812-0.215
	c0,0,0,0-0.002,0l-243.81,0.054c-0.124,0-0.247,0.003-0.371,0.008c-28.025,1.314-49.979,24.335-49.979,52.41v284.091
	c0,4.392,3.56,7.95,7.95,7.95h241.689c1.56,0,3.012-0.456,4.24-1.233C404.299,429.855,402.816,427.377,402.816,424.547z"/>
<path id="SVGCleanerId_0" style="fill:#CCCCCC;" d="M296.282,3.18H50.352c-4.391,0-7.95,3.559-7.95,7.95v371.014
	c0,27.764,22.588,50.352,50.352,50.352h245.93c4.392,0,7.95-3.559,7.95-7.95V53.532C346.634,25.769,324.045,3.18,296.282,3.18z"/>
<g>
	<path id="SVGCleanerId_0_1_" style="fill:#CCCCCC;" d="M296.282,3.18H50.352c-4.391,0-7.95,3.559-7.95,7.95v371.014
		c0,27.764,22.588,50.352,50.352,50.352h245.93c4.392,0,7.95-3.559,7.95-7.95V53.532C346.634,25.769,324.045,3.18,296.282,3.18z"/>
</g>
<path style="fill:#F2F2F2;" d="M294.871,3.216c-0.234-0.021-0.47-0.036-0.709-0.036c0,0,0,0-0.002,0L50.35,3.234
	c-0.124,0-0.247,0.003-0.371,0.008C21.953,4.557,0,27.578,0,55.652v23.321c0,4.391,3.56,7.95,7.95,7.95h230.029
	c4.391,0,7.95-3.56,7.95-7.95V53.532C245.93,26.241,267.758,3.968,294.871,3.216z"/>
<path style="fill:#FF7452;" d="M143.636,175.967H92.754c-4.391,0-7.95-3.559-7.95-7.95v-50.882c0-4.392,3.56-7.95,7.95-7.95h50.882
	c4.391,0,7.95,3.559,7.95,7.95v50.882C151.586,172.408,148.026,175.967,143.636,175.967z M100.704,160.066h34.981v-34.981h-34.981
	V160.066z"/>
<path style="fill:#808080;" d="M294.161,148.406H190.277c-4.391,0-7.95-3.559-7.95-7.95s3.56-7.95,7.95-7.95h103.884
	c4.392,0,7.95,3.559,7.95,7.95S298.553,148.406,294.161,148.406z"/>
<path style="fill:#FF7452;" d="M143.636,271.371H92.754c-4.391,0-7.95-3.559-7.95-7.95v-50.882c0-4.392,3.56-7.95,7.95-7.95h50.882
	c4.391,0,7.95,3.559,7.95,7.95v50.882C151.586,267.812,148.026,271.371,143.636,271.371z M100.704,255.47h34.981v-34.981h-34.981
	V255.47z"/>
<path style="fill:#808080;" d="M294.161,243.81H190.277c-4.391,0-7.95-3.559-7.95-7.95c0-4.392,3.56-7.95,7.95-7.95h103.884
	c4.392,0,7.95,3.559,7.95,7.95C302.112,240.251,298.553,243.81,294.161,243.81z"/>
<path style="fill:#FF7452;" d="M143.636,366.774H92.754c-4.391,0-7.95-3.559-7.95-7.95v-50.882c0-4.392,3.56-7.95,7.95-7.95h50.882
	c4.391,0,7.95,3.559,7.95,7.95v50.882C151.586,363.216,148.026,366.774,143.636,366.774z M100.704,350.874h34.981v-34.981h-34.981
	V350.874z"/>
<path style="fill:#808080;" d="M294.161,339.213H190.277c-4.391,0-7.95-3.559-7.95-7.95s3.56-7.95,7.95-7.95h103.884
	c4.392,0,7.95,3.559,7.95,7.95S298.553,339.213,294.161,339.213z"/>
<path style="fill:#FFD652;" d="M402.286,289.391c-60.497,0-109.714,49.218-109.714,109.714S341.789,508.82,402.286,508.82
	S512,459.602,512,399.106S462.782,289.391,402.286,289.391z"/>
<circle style="fill:#FB9D46;" cx="402.286" cy="399.106" r="78.443"/>
<circle style="fill:#B2B2B2;" cx="402.286" cy="399.106" r="63.602"/>
<circle style="fill:#E5E5E5;" cx="402.286" cy="399.106" r="44.522"/>
<path style="fill:#E24642;" d="M431.967,407.056h-29.681c-4.392,0-7.95-3.559-7.95-7.95v-29.681c0-4.392,3.559-7.95,7.95-7.95
	c4.392,0,7.95,3.559,7.95,7.95v21.731h21.731c4.392,0,7.95,3.559,7.95,7.95S436.359,407.056,431.967,407.056z"/>
</svg>